<svg width="36" height="36" viewBox="0 0 36 36" fill="none" xmlns="http://www.w3.org/2000/svg">
<g clip-path="url(#clip0_154_437)">
<path d="M23.8334 16.3333V18C23.8334 19.5471 23.2188 21.0308 22.1248 22.1248C21.0308 23.2187 19.5471 23.8333 18 23.8333M18 23.8333C16.4529 23.8333 14.9692 23.2187 13.8752 22.1248C12.7813 21.0308 12.1667 19.5471 12.1667 18V16.3333M18 23.8333V27.1666M14.6667 27.1666H21.3334M18 8.83331C17.337 8.83331 16.7011 9.09671 16.2323 9.56555C15.7634 10.0344 15.5 10.6703 15.5 11.3333V18C15.5 18.663 15.7634 19.2989 16.2323 19.7677C16.7011 20.2366 17.337 20.5 18 20.5C18.6631 20.5 19.2989 20.2366 19.7678 19.7677C20.2366 19.2989 20.5 18.663 20.5 18V11.3333C20.5 10.6703 20.2366 10.0344 19.7678 9.56555C19.2989 9.09671 18.6631 8.83331 18 8.83331Z" stroke="#1E1E1E" stroke-width="2" stroke-linecap="round" stroke-linejoin="round"/>
</g>
<defs>
<clipPath id="clip0_154_437">
<rect width="20" height="20" fill="white" transform="translate(8 8)"/>
</clipPath>
</defs>
</svg>
