<svg width="36" height="36" viewBox="0 0 36 36" fill="none" xmlns="http://www.w3.org/2000/svg">
<path d="M28 24.2222C28 24.6937 27.8084 25.1459 27.4675 25.4793C27.1265 25.8127 26.664 26 26.1818 26H9.81818C9.33597 26 8.87351 25.8127 8.53253 25.4793C8.19156 25.1459 8 24.6937 8 24.2222V14.4444C8 13.9729 8.19156 13.5208 8.53253 13.1874C8.87351 12.854 9.33597 12.6667 9.81818 12.6667H13.4545L15.2727 10H20.7273L22.5455 12.6667H26.1818C26.664 12.6667 27.1265 12.854 27.4675 13.1874C27.8084 13.5208 28 13.9729 28 14.4444V24.2222Z" stroke="#1E1E1E" stroke-width="2" stroke-linecap="round" stroke-linejoin="round"/>
<path d="M18 22.4444C20.0083 22.4444 21.6364 20.8526 21.6364 18.8889C21.6364 16.9252 20.0083 15.3333 18 15.3333C15.9917 15.3333 14.3636 16.9252 14.3636 18.8889C14.3636 20.8526 15.9917 22.4444 18 22.4444Z" stroke="#1E1E1E" stroke-width="2" stroke-linecap="round" stroke-linejoin="round"/>
</svg>
